<svg width="13" height="13" viewBox="0 0 13 13" fill="none" xmlns="http://www.w3.org/2000/svg">
<path d="M2.6301 2.6301H12.4107L11.1881 7.92793H3.85268M11.1881 9.55803H4.2602L2.22258 1H1" stroke="#0E213F" stroke-linecap="round" stroke-linejoin="round"/>
<path d="M10.3732 11.9973C10.8233 11.9973 11.1882 11.6324 11.1882 11.1822C11.1882 10.7321 10.8233 10.3672 10.3732 10.3672C9.92302 10.3672 9.55811 10.7321 9.55811 11.1822C9.55811 11.6324 9.92302 11.9973 10.3732 11.9973Z" stroke="#0E213F" stroke-linecap="round" stroke-linejoin="round"/>
<path d="M5.0753 11.9973C5.52544 11.9973 5.89036 11.6324 5.89036 11.1822C5.89036 10.7321 5.52544 10.3672 5.0753 10.3672C4.62516 10.3672 4.26025 10.7321 4.26025 11.1822C4.26025 11.6324 4.62516 11.9973 5.0753 11.9973Z" stroke="#0E213F" stroke-linecap="round" stroke-linejoin="round"/>
</svg>
