<svg width="19" height="19" viewBox="0 0 19 19" fill="none" xmlns="http://www.w3.org/2000/svg">
<path d="M9.5 14.25C9.76916 14.25 9.99494 14.1588 10.1773 13.9764C10.3597 13.794 10.4506 13.5685 10.45 13.3V9.5C10.45 9.23083 10.3588 9.00536 10.1764 8.8236C9.99399 8.64183 9.76853 8.55063 9.5 8.55C9.23146 8.54936 9.00599 8.64056 8.8236 8.8236C8.6412 9.00663 8.55 9.2321 8.55 9.5V13.3C8.55 13.5692 8.6412 13.7949 8.8236 13.9773C9.00599 14.1597 9.23146 14.2506 9.5 14.25ZM9.5 6.65C9.76916 6.65 9.99494 6.5588 10.1773 6.3764C10.3597 6.194 10.4506 5.96853 10.45 5.7C10.4494 5.43147 10.3582 5.206 10.1764 5.0236C9.99463 4.8412 9.76916 4.75 9.5 4.75C9.23083 4.75 9.00536 4.8412 8.8236 5.0236C8.64183 5.206 8.55063 5.43147 8.55 5.7C8.54936 5.96853 8.64056 6.19432 8.8236 6.37735C9.00663 6.56038 9.23209 6.65127 9.5 6.65ZM9.5 19C8.18583 19 6.95083 18.7505 5.795 18.2514C4.63917 17.7523 3.63375 17.0756 2.77875 16.2212C1.92375 15.3669 1.24703 14.3615 0.748601 13.205C0.250168 12.0485 0.000634535 10.8135 1.20253e-06 9.5C-0.00063213 8.18646 0.248901 6.95147 0.748601 5.795C1.2483 4.63853 1.92502 3.63312 2.77875 2.77875C3.63248 1.92438 4.6379 1.24767 5.795 0.7486C6.9521 0.249533 8.1871 0 9.5 0C10.8129 0 12.0479 0.249533 13.205 0.7486C14.3621 1.24767 15.3675 1.92438 16.2212 2.77875C17.075 3.63312 17.752 4.63853 18.2523 5.795C18.7527 6.95147 19.0019 8.18646 19 9.5C18.9981 10.8135 18.7486 12.0485 18.2514 13.205C17.7542 14.3615 17.0775 15.3669 16.2212 16.2212C15.365 17.0756 14.3596 17.7526 13.205 18.2523C12.0504 18.752 10.8154 19.0013 9.5 19ZM9.5 17.1C11.6217 17.1 13.4187 16.3637 14.8912 14.8912C16.3637 13.4187 17.1 11.6217 17.1 9.5C17.1 7.37833 16.3637 5.58125 14.8912 4.10875C13.4187 2.63625 11.6217 1.9 9.5 1.9C7.37833 1.9 5.58125 2.63625 4.10875 4.10875C2.63625 5.58125 1.9 7.37833 1.9 9.5C1.9 11.6217 2.63625 13.4187 4.10875 14.8912C5.58125 16.3637 7.37833 17.1 9.5 17.1Z" fill="#363636"/>
</svg>
